# xmcd
#
# Track frame offsets: 
#        150
#        17504
#        28513
#        43202
#        60030
#        76859
#        95870
#        108539
#        124412
#        143016
#
# Disc length: 2167 seconds
#
# Revision: 0
# Processed by: cddbd v1.5.2PL0 Copyright (c) Steve Scherf et al.
# Submitted via: ExactAudioCopy v1.0b4
#
DISCID=7c08750a
DTITLE=Cookies 'N' Beans - Go tell the world CD1
DYEAR=2012
DGENRE=Country
TTITLE0=Go tell the world
TTITLE1=Don't think about tomorrow
TTITLE2=Tomorrow's such a long time away
TTITLE3=Fire
TTITLE4=Limbo dancing girls
TTITLE5=The first step (on a long way down)
TTITLE6=The boy is mine
TTITLE7=Got no heart
TTITLE8=Row row
TTITLE9=The only medicine that works is you
EXTD=
EXTT0=
EXTT1=
EXTT2=
EXTT3=
EXTT4=
EXTT5=
EXTT6=
EXTT7=
EXTT8=
EXTT9=
PLAYORDER=
